<svg id="レイヤー_1" data-name="レイヤー 1" xmlns="http://www.w3.org/2000/svg" viewBox="0 0 100 100"><defs><style>.cls-1{fill:none;}.cls-2{fill:#788283;}</style></defs><title>icon_search</title><rect id="長方形_176" data-name="長方形 176" class="cls-1" x="3.51" y="3.51" width="92.99" height="92.99"/><path id="パス_99" data-name="パス 99" class="cls-2" d="M96.2,88.07,77,68.89a39.72,39.72,0,0,0,8.14-24.41A40.43,40.43,0,0,0,45,3.8h-.5A40.43,40.43,0,0,0,3.8,44v.5A40.43,40.43,0,0,0,44,85.16h.5A39.72,39.72,0,0,0,68.89,77L88.07,96.2ZM15.42,44.48A28.78,28.78,0,0,1,43.91,15.42h.57A28.78,28.78,0,0,1,73.54,43.91v.57A28.78,28.78,0,0,1,45.05,73.54h-.57A28.78,28.78,0,0,1,15.42,45.05Z"/></svg>