<svg id="レイヤー_1" data-name="レイヤー 1" xmlns="http://www.w3.org/2000/svg" viewBox="0 0 90 90"><defs><style>.cls-1{fill:#788283;fill-rule:evenodd;}</style></defs><title>icon-instagram</title><g id="Icon_-_Instagram" data-name="Icon - Instagram"><path id="パス_3" data-name="パス 3" class="cls-1" d="M45,12.11a123.84,123.84,0,0,1,16,.44,20.7,20.7,0,0,1,7.55,1.34,15.63,15.63,0,0,1,7.56,7.55A20.79,20.79,0,0,1,77.45,29c0,4,.44,5.33.44,16a123.84,123.84,0,0,1-.44,16,20.7,20.7,0,0,1-1.34,7.55,15.63,15.63,0,0,1-7.55,7.56A20.57,20.57,0,0,1,61,77.44c-4,0-5.33.45-16,.45a122.08,122.08,0,0,1-16-.45,20.48,20.48,0,0,1-7.55-1.33,15.61,15.61,0,0,1-7.56-7.56A20.48,20.48,0,0,1,12.56,61c0-4-.45-5.34-.45-16a122.08,122.08,0,0,1,.45-16,20.57,20.57,0,0,1,1.33-7.56A16.16,16.16,0,0,1,17,17a7.5,7.5,0,0,1,4.45-3.11A20.7,20.7,0,0,1,29,12.55a123.84,123.84,0,0,1,16-.44M45,5a130.68,130.68,0,0,0-16.44.44,27.67,27.67,0,0,0-9.78,1.78,17.45,17.45,0,0,0-7.11,4.44,17.47,17.47,0,0,0-4.45,7.12,20.28,20.28,0,0,0-1.77,9.77A129,129,0,0,0,5,45a128.88,128.88,0,0,0,.45,16.44,27.19,27.19,0,0,0,1.78,9.78,17.24,17.24,0,0,0,4.44,7.11,17.37,17.37,0,0,0,7.11,4.45,27.45,27.45,0,0,0,9.78,1.78A130.79,130.79,0,0,0,45,85a130.69,130.69,0,0,0,16.44-.45,27.28,27.28,0,0,0,9.79-1.78A18.63,18.63,0,0,0,82.78,71.22a27.49,27.49,0,0,0,1.78-9.78C84.56,57,85,55.66,85,45a130.89,130.89,0,0,0-.44-16.45,27.71,27.71,0,0,0-1.78-9.78,17.5,17.5,0,0,0-4.45-7.11,17.45,17.45,0,0,0-7.11-4.44,27.67,27.67,0,0,0-9.78-1.78A130.68,130.68,0,0,0,45,5m0,19.55A20.11,20.11,0,0,0,24.56,44.33c0,.23,0,.45,0,.67A20.45,20.45,0,1,0,45,24.55h0m0,33.78A13.08,13.08,0,0,1,31.67,45.48a3.84,3.84,0,0,1,0-.48A13.09,13.09,0,0,1,44.52,31.66H45A13.11,13.11,0,0,1,58.34,44.51V45A13.09,13.09,0,0,1,45.48,58.33a3.84,3.84,0,0,1-.48,0M66.34,18.78a4.89,4.89,0,1,0,4.89,4.89h0a4.94,4.94,0,0,0-4.89-4.89"/></g></svg>