<svg id="レイヤー_1" data-name="レイヤー 1" xmlns="http://www.w3.org/2000/svg" viewBox="0 0 90 90"><defs><style>.cls-1{fill:#788283;fill-rule:evenodd;}</style></defs><title>icon-twitter</title><path id="icon_-_Twitter" data-name="icon - Twitter" class="cls-1" d="M30.34,77.44A46.25,46.25,0,0,0,77,31.61V28.55a35.84,35.84,0,0,0,8-8.44,37,37,0,0,1-9.34,2.66,17.27,17.27,0,0,0,7.12-8.89,40.59,40.59,0,0,1-10.22,4,15.9,15.9,0,0,0-12-5.33A16.71,16.71,0,0,0,44.11,29a8.73,8.73,0,0,0,.44,3.55A46,46,0,0,1,10.77,15.22a17.08,17.08,0,0,0-2.22,8.44,17.67,17.67,0,0,0,7.11,13.78,15,15,0,0,1-7.55-2.22h0a16.24,16.24,0,0,0,13.33,16,13.82,13.82,0,0,1-4.44.45,7.47,7.47,0,0,1-3.11-.45A16.85,16.85,0,0,0,29.44,62.78,33.59,33.59,0,0,1,9,69.89a12.28,12.28,0,0,1-4-.45,42,42,0,0,0,25.34,8"/></svg>