<svg id="レイヤー_1" data-name="レイヤー 1" xmlns="http://www.w3.org/2000/svg" viewBox="0 0 100 100"><defs><style>.cls-1{fill:none;}.cls-1,.cls-2{stroke:#79c1f8;stroke-linecap:round;stroke-linejoin:round;stroke-width:10px;}.cls-2{fill:#fff;}</style></defs><title>icon_beer</title><ellipse class="cls-1" cx="24.06" cy="61.5" rx="14.5" ry="19.5"/><path class="cls-2" d="M87,31.8V82.54c0,4.86-4.78,8.8-10.67,8.8H42.08c-5.9,0-10.67-3.94-10.67-8.8V31.8c0-4.86,4.77-8.8,10.67-8.8H76.3C82.19,23,87,26.94,87,31.8Z"/><path class="cls-2" d="M78.25,34a10.23,10.23,0,0,1,.19,2,11,11,0,0,1-22,1c-16-.64-28.54-6.86-28.54-14.45,0-8,14-14.5,31.25-14.5s31.25,6.49,31.25,14.5C90.44,27.18,85.67,31.34,78.25,34Z"/></svg>