<svg id="レイヤー_1" data-name="レイヤー 1" xmlns="http://www.w3.org/2000/svg" viewBox="0 0 100 100"><defs><style>.cls-1,.cls-3{fill:none;}.cls-2{fill:#5aa9e3;}.cls-3{stroke:#5aa9e3;stroke-width:8.35px;}</style></defs><title>icon_human</title><g id="グループ_63" data-name="グループ 63"><g id="交差_1" data-name="交差 1"><path class="cls-1" d="M8.26,91.74a4.17,4.17,0,0,1-4-3C6.31,71.57,26,58.07,50,58.07s43.69,13.5,45.74,30.7a4.17,4.17,0,0,1-4,3Z"/><path class="cls-2" d="M85.4,83.39a27.25,27.25,0,0,0-9-9.5C69.3,69.07,59.91,66.42,50,66.42s-19.3,2.65-26.43,7.47a27.34,27.34,0,0,0-9,9.5H85.4m6.34,8.35H8.26a4.18,4.18,0,0,1-4-3C6.31,71.56,26,58.07,50,58.07s43.69,13.49,45.74,30.7A4.18,4.18,0,0,1,91.74,91.74Z"/></g><g id="楕円形_14" data-name="楕円形 14"><circle class="cls-1" cx="48.08" cy="31.21" r="22.96"/><circle class="cls-3" cx="48.08" cy="31.21" r="18.78"/></g></g></svg>