<svg xmlns="http://www.w3.org/2000/svg" width="117.758" height="29.886" viewBox="0 0 117.758 29.886">
  <defs>
    <style>
      .cls-1 {
        fill: #788283;
      }
    </style>
  </defs>
  <g id="logo-ttl" transform="translate(-231.022 -413.819)">
    <path id="logo-ttl__u" class="cls-1" d="M256.08,427.978c0,9.071-6.535,15.783-16.471,15.783-1.567,0-5.763-.166-8.557-.291l-.029-28.821c2.971-.15,7.561-.347,9.508-.347C250.178,414.3,256.08,419.21,256.08,427.978Zm-4.5.4c0-6.476-4.171-11.454-10.9-11.454-1.164,0-3.616-.107-5.521,0v24.263c1.624.1,3.925,0,5.061,0C247.412,441.186,251.576,434.984,251.576,428.377Z" transform="translate(0 -0.26)"/>
    <path id="logo-ttl__o" class="cls-1" d="M329.449,429.58c0-8.765,5.994-15.761,14.335-15.761,7.569,0,12.934,5.759,12.934,14.064,0,8.784-6.028,15.822-14.393,15.822C334.756,443.7,329.449,437.879,329.449,429.58Zm22.85-.989c0-5.686-3.417-12.238-9.216-12.2s-9.215,6.7-9.215,12.554c0,5.816,3.347,12.184,8.962,12.183C348.637,441.131,352.3,434.427,352.3,428.591Z" transform="translate(-53.143 0)"/>
    <path id="logo-ttl__d" class="cls-1" d="M459.809,414.706v17.151c0,7.536-4.136,12.322-11.344,12.322-7.345,0-11.806-4.786-11.806-12.322V414.791c2.195,0,3.765-.052,4.337-.092v17.159c0,5.091,2.545,9.748,7.238,9.748,4.757,0,7.572-4.657,7.572-9.748V414.791C457.832,414.791,459.282,414.743,459.809,414.706Z" transform="translate(-111.029 -0.475)"/>
  </g>
</svg>
