<svg id="レイヤー_1" data-name="レイヤー 1" xmlns="http://www.w3.org/2000/svg" viewBox="0 0 560 300"><defs><style>.cls-1{fill:#788283;}</style></defs><title>logo_blog</title><line class="cls-1" x1="360.77" y1="276.23" x2="355.39" y2="273.6"/><rect class="cls-1" x="165.98" y="3.26" width="39.23" height="56.21"/><rect class="cls-1" x="117.96" y="3.26" width="39.23" height="56.21"/><path class="cls-1" d="M557.34,59.47l-116.55.05V3.26H401.56V59.53l-38.36,0v-.08H284.74V169.55H363.2V72.94H493.58c-9.86,84.81-42,161.85-89.78,223.66h90.57c39.82-67.48,62.73-137,62.73-223.66C557.1,72.94,557.36,60.24,557.34,59.47Z"/><polygon class="cls-1" points="205.64 170.08 81.12 110.47 81.12 3.42 2.66 3.42 2.66 296.74 81.12 296.74 81.12 153.97 205.64 213.57 205.64 170.08"/></svg>