<svg id="レイヤー_1" data-name="レイヤー 1" xmlns="http://www.w3.org/2000/svg" viewBox="0 0 1072 1432"><defs><style>.cls-1{fill:#eaeded;}</style></defs><title>logo-footer</title><g id="アートワーク_2" data-name="アートワーク 2"><path id="パス_8" data-name="パス 8" class="cls-1" d="M883.16,194.9A490.15,490.15,0,0,0,453.57,58.09L52.16,459.47C6.62,726.71,186.33,980.27,453.57,1025.81s520.79-134.16,566.34-401.4A490.85,490.85,0,0,0,883.16,194.9ZM649.21,655.11a160.13,160.13,0,1,1,47-113.31A160.13,160.13,0,0,1,649.21,655.11Z"/></g><g id="グループ化_65-2" data-name="グループ化 65-2"><path id="パス_104" data-name="パス 104" class="cls-1" d="M273.21,1273.9c0,60.73-43.76,105.68-110.29,105.68-10.5,0-38.58-1.11-57.3-1.95l-.19-193c19.89-1,50.62-2.33,63.66-2.33C233.69,1182.32,273.21,1215.19,273.21,1273.9Zm-30.16,2.67c0-43.36-27.93-76.69-73-76.69-7.8,0-24.22-.72-37,0v162.44c10.88.67,26.28,0,33.89,0,48.2,0,76.08-41.5,76.08-85.74Z"/><path id="パス_105" data-name="パス 105" class="cls-1" d="M445.52,1286.37c0-58.69,40.13-105.53,96-105.53,50.68,0,86.6,38.56,86.6,94.17,0,58.81-40.36,105.94-96.37,105.94C481.06,1381,445.52,1341.94,445.52,1286.37Zm153-6.62c0-38.07-22.88-81.94-61.71-81.67s-61.7,44.89-61.7,84.06c0,38.94,22.41,81.58,60,81.57,38.89,0,63.41-44.89,63.41-84Z"/><path id="パス_106" data-name="パス 106" class="cls-1" d="M967.62,1183.6v114.84c0,50.47-27.7,82.5-76,82.5-49.18,0-79-32-79-82.5V1184.16c14.69,0,25.21-.35,29-.61v114.89c0,34.09,17,65.27,48.46,65.27,31.85,0,50.7-31.18,50.7-65.27V1184.16C954.38,1184.16,964.08,1183.84,967.62,1183.6Z"/></g></svg>