<svg id="レイヤー_1" data-name="レイヤー 1" xmlns="http://www.w3.org/2000/svg" viewBox="0 0 100 100"><defs><style>.cls-1{fill:#00a4de;}.cls-2{fill:#fff;}</style></defs><title>share_hatena</title><path id="パス_83" data-name="パス 83" class="cls-1" d="M50,1A49,49,0,1,1,1,50,49,49,0,0,1,50,1Z"/><g id="グループ_41" data-name="グループ 41"><g id="グループ_40" data-name="グループ 40"><g id="グループ_39" data-name="グループ 39"><g id="グループ_38" data-name="グループ 38"><g id="グループ_37" data-name="グループ 37"><g id="グループ_36" data-name="グループ 36"><g id="グループ_35" data-name="グループ 35"><g id="hatenabookmark-logomark"><g id="グループ_31" data-name="グループ 31"><path id="パス_84" data-name="パス 84" class="cls-2" d="M59.14,51.69a12.76,12.76,0,0,0-8.62-3.54,14.35,14.35,0,0,0,7.16-3.59,8.87,8.87,0,0,0,2.23-6.39A10.1,10.1,0,0,0,54,28.66a20.11,20.11,0,0,0-6-1.8,98.18,98.18,0,0,0-12.24-.5H21.61V73.64H36.25A103.85,103.85,0,0,0,49,73.09a21.88,21.88,0,0,0,6.53-1.85,11.62,11.62,0,0,0,5-4.45,12.75,12.75,0,0,0,1.76-6.68A11.47,11.47,0,0,0,59.14,51.69ZM34.75,36.83h3a15.35,15.35,0,0,1,7.06,1.08,4,4,0,0,1,1.8,3.74,3.74,3.74,0,0,1-1.94,3.62,16.48,16.48,0,0,1-7.16,1h-2.8Zm12,27.11a15.77,15.77,0,0,1-7.09,1.15H34.75V54.79H39.9A14.47,14.47,0,0,1,47,56a4.54,4.54,0,0,1,1.91,4.16A3.8,3.8,0,0,1,46.76,64Z"/><path id="パス_85" data-name="パス 85" class="cls-2" d="M72.39,61.67a6,6,0,1,0,6,6,6,6,0,0,0-6-6Z"/><rect id="長方形_394" data-name="長方形 394" class="cls-2" x="67.19" y="26.36" width="10.4" height="31.53"/></g></g></g></g></g></g></g></g></g></svg>